<svg width="27" height="21" viewBox="0 0 27 21" fill="none" xmlns="http://www.w3.org/2000/svg">
<path d="M4.05 5.25C4.05 3.85761 4.61893 2.52226 5.63162 1.53769C6.64432 0.553123 8.01783 0 9.45 0C10.8822 0 12.2557 0.553123 13.2684 1.53769C14.2811 2.52226 14.85 3.85761 14.85 5.25C14.85 6.64239 14.2811 7.97775 13.2684 8.96231C12.2557 9.94688 10.8822 10.5 9.45 10.5C8.01783 10.5 6.64432 9.94688 5.63162 8.96231C4.61893 7.97775 4.05 6.64239 4.05 5.25ZM0 19.7818C0 15.7418 3.36656 12.4688 7.52203 12.4688H11.378C15.5334 12.4688 18.9 15.7418 18.9 19.7818C18.9 20.4545 18.3389 21 17.647 21H1.25297C0.561094 21 0 20.4545 0 19.7818ZM25.7048 21H19.8872C20.115 20.6145 20.25 20.1674 20.25 19.6875V19.3594C20.25 16.8697 19.1067 14.6344 17.3053 13.1332C17.4066 13.1291 17.5036 13.125 17.6048 13.125H20.1952C23.9541 13.125 27 16.0863 27 19.7408C27 20.4381 26.4178 21 25.7048 21ZM18.225 10.5C16.9172 10.5 15.7359 9.9832 14.8795 9.15059C15.7106 8.05957 16.2 6.71016 16.2 5.25C16.2 4.15078 15.9216 3.11309 15.428 2.20254C16.2127 1.64473 17.1788 1.3125 18.225 1.3125C20.8364 1.3125 22.95 3.36738 22.95 5.90625C22.95 8.44512 20.8364 10.5 18.225 10.5Z" fill="#949494"/>
</svg>
