<svg width="55" height="80" viewBox="0 0 55 80" fill="none" xmlns="http://www.w3.org/2000/svg">
<path d="M15.1872 59.8342C13.7145 54.9122 10.6617 50.7153 7.6395 46.5338C6.84178 45.4383 6.04405 44.3428 5.277 43.2319C2.23951 38.8344 0.459961 33.5112 0.459961 27.7559C0.459961 12.7428 12.5486 0.584229 27.46 0.584229C42.3713 0.584229 54.46 12.7428 54.46 27.7405C54.46 33.4958 52.6804 38.8344 49.6429 43.2165C48.8759 44.3274 48.0781 45.4229 47.2804 46.5184C44.2429 50.6999 41.1901 54.9122 39.7327 59.8188H15.1872V59.8342ZM27.46 79.5842C20.6793 79.5842 15.1872 74.0604 15.1872 67.2405V64.7717H39.7327V67.2405C39.7327 74.0604 34.2406 79.5842 27.46 79.5842ZM39.7327 27.7405C39.7327 29.0983 40.8372 30.2092 42.1872 30.2092C43.5372 30.2092 44.6418 29.0983 44.6418 27.7405C44.6418 18.1895 36.956 10.4592 27.46 10.4592C26.11 10.4592 25.0054 11.5702 25.0054 12.928C25.0054 14.2858 26.11 15.3967 27.46 15.3967C34.2406 15.3967 39.7327 20.9206 39.7327 27.7405Z" fill="#CD57FF"/>
</svg>
