<svg width="50" height="51" viewBox="0 0 50 51" fill="none" xmlns="http://www.w3.org/2000/svg">
<ellipse cx="25" cy="25.6917" rx="25" ry="25" fill="#D9D9D9"/>
<g clip-path="url(#clip0_63_860)">
<path d="M25.5001 8.69177C24.3543 8.69177 23.4287 9.61345 23.4287 10.7543V11.9918C18.7032 12.9457 15.143 17.1094 15.143 22.098V23.3097C15.143 26.339 14.0231 29.2652 12.0035 31.534L11.5244 32.0689C10.9807 32.6748 10.8512 33.5449 11.1814 34.2861C11.5115 35.0273 12.2559 35.5043 13.0715 35.5043H37.9287C38.7443 35.5043 39.4822 35.0273 39.8189 34.2861C40.1555 33.5449 40.0195 32.6748 39.4758 32.0689L38.9968 31.534C36.9771 29.2652 35.8572 26.3455 35.8572 23.3097V22.098C35.8572 17.1094 32.297 12.9457 27.5715 11.9918V10.7543C27.5715 9.61345 26.6459 8.69177 25.5001 8.69177ZM28.4325 40.4865C29.2093 39.7131 29.643 38.6625 29.643 37.5668H25.5001H21.3572C21.3572 38.6625 21.791 39.7131 22.5677 40.4865C23.3445 41.2599 24.3997 41.6918 25.5001 41.6918C26.6005 41.6918 27.6557 41.2599 28.4325 40.4865Z" fill="#949494"/>
</g>
<defs>
<clipPath id="clip0_63_860">
<rect width="29" height="33" fill="white" transform="translate(11 8.69177)"/>
</clipPath>
</defs>
</svg>
