<svg width="86" height="80" viewBox="0 0 86 80" fill="none" xmlns="http://www.w3.org/2000/svg">
<path d="M59.8963 0.584229H26.8408C22.9302 0.584229 19.7427 3.9479 19.8902 8.02134C19.9197 8.83911 19.9493 9.65689 19.9935 10.4592H4.4102C2.44752 10.4592 0.86853 12.1102 0.86853 14.1624C0.86853 28.4502 5.81211 38.387 12.4527 45.1297C18.9901 51.7799 26.9588 55.1282 32.8321 56.8254C36.2852 57.8284 38.6463 60.8372 38.6463 63.8614C38.6463 67.0862 36.1376 69.7092 33.0534 69.7092H29.2019C26.5899 69.7092 24.4796 71.9157 24.4796 74.6467C24.4796 77.3778 26.5899 79.5842 29.2019 79.5842H57.5352C60.1472 79.5842 62.2574 77.3778 62.2574 74.6467C62.2574 71.9157 60.1472 69.7092 57.5352 69.7092H53.6836C50.5994 69.7092 48.0908 67.0862 48.0908 63.8614C48.0908 60.8372 50.4371 57.8129 53.905 56.8254C59.793 55.1282 67.7618 51.7799 74.2991 45.1297C80.925 38.387 85.8685 28.4502 85.8685 14.1624C85.8685 12.1102 84.2895 10.4592 82.3269 10.4592H66.7435C66.7878 9.65689 66.8173 8.85454 66.8468 8.02134C66.9944 3.9479 63.8069 0.584229 59.8963 0.584229ZM8.08468 17.8655H20.5395C21.8824 31.7676 24.8486 41.0563 28.1984 47.2745C24.5239 45.5772 20.7019 43.1856 17.3963 39.8219C12.6741 35.0233 8.83728 28.0954 8.09943 17.8655H8.08468ZM69.3555 39.8219C66.05 43.1856 62.2279 45.5772 58.5534 47.2745C61.9033 41.0563 64.8694 31.7676 66.2123 17.8655H78.6671C77.9145 28.0954 74.0777 35.0233 69.3703 39.8219H69.3555Z" fill="#CD57FF"/>
</svg>
