<svg width="56" height="56" viewBox="0 0 56 56" fill="none" xmlns="http://www.w3.org/2000/svg">
<ellipse cx="31" cy="30.8531" rx="25" ry="25" fill="#D9D9D9"/>
<path d="M43.2693 17.4772C43.7281 17.8249 44 18.3812 44 18.9665V23.1391V38.4383C44 40.9998 41.5645 43.0745 38.5625 43.0745C35.5605 43.0745 33.125 40.9998 33.125 38.4383C33.125 35.8769 35.5605 33.8022 38.5625 33.8022C39.1969 33.8022 39.8086 33.8949 40.375 34.0688V25.631L25.875 30.0817V42.1472C25.875 44.7087 23.4395 46.7834 20.4375 46.7834C17.4355 46.7834 15 44.7087 15 42.1472C15 39.5858 17.4355 37.5111 20.4375 37.5111C21.0719 37.5111 21.6836 37.6038 22.25 37.7777V28.7024V24.5299C22.25 23.7128 22.7768 22.9884 23.5414 22.7508L41.6664 17.1874C42.2158 17.0194 42.8105 17.1237 43.2693 17.4772Z" fill="#949494"/>
</svg>
