<svg width="50" height="51" viewBox="0 0 50 51" fill="none" xmlns="http://www.w3.org/2000/svg">
<ellipse cx="25" cy="25.6917" rx="25" ry="25" fill="#D9D9D9"/>
<g clip-path="url(#clip0_63_864)">
<path d="M38.1582 12.0308C38.7698 12.4546 39.0907 13.1872 38.9756 13.9199L35.1006 39.1074C35.0098 39.6947 34.6526 40.2093 34.1319 40.4999C33.6112 40.7906 32.9875 40.8269 32.4366 40.5968L25.1951 37.5876L21.0477 42.0742C20.5088 42.6615 19.6612 42.8552 18.9164 42.5646C18.1717 42.274 17.6873 41.5534 17.6873 40.7542V35.6925C17.6873 35.4503 17.7782 35.2202 17.9416 35.0447L28.0893 23.9706C28.4405 23.5892 28.4284 23.0019 28.0651 22.6386C27.7018 22.2753 27.1145 22.2511 26.733 22.5962L14.4178 33.537L9.07152 30.8609C8.42972 30.54 8.018 29.8982 7.99984 29.1837C7.98167 28.4693 8.35706 27.8033 8.97464 27.446L36.0996 11.946C36.7475 11.5767 37.5467 11.613 38.1582 12.0308Z" fill="#949494"/>
</g>
<defs>
<clipPath id="clip0_63_864">
<rect width="31" height="31" fill="white" transform="translate(8 11.6918)"/>
</clipPath>
</defs>
</svg>
