<svg width="35" height="31" viewBox="0 0 35 31" fill="none" xmlns="http://www.w3.org/2000/svg">
<path d="M0.00917816 15.4697C0.00917816 16.5596 0.920711 17.4133 1.95378 17.4133H3.8984L3.85586 27.1129C3.85586 27.2764 3.86801 27.4398 3.88624 27.6033V28.5781C3.88624 29.9162 4.97401 31 6.31701 31H7.28931C7.35615 31 7.423 31 7.48985 30.9939C7.57492 31 7.66 31 7.74508 31H9.72007H11.1785C12.5215 31 13.6093 29.9162 13.6093 28.5781V27.125V23.25C13.6093 22.1783 14.4783 21.3125 15.5539 21.3125H19.4431C20.5187 21.3125 21.3877 22.1783 21.3877 23.25V27.125V28.5781C21.3877 29.9162 22.4755 31 23.8185 31H25.277H27.2155C27.3066 31 27.3978 30.9939 27.4889 30.9879C27.5619 30.9939 27.6348 31 27.7077 31H28.68C30.023 31 31.1108 29.9162 31.1108 28.5781V21.7969C31.1108 21.7424 31.1108 21.6818 31.1047 21.6273V17.4133H33.0554C34.1492 17.4133 35 16.5656 35 15.4697C35 14.9248 34.8177 14.4404 34.3923 14.0166L18.8111 0.484375C18.3857 0.0605469 17.8996 0 17.4742 0C17.0488 0 16.5627 0.121094 16.1981 0.423828L0.677635 14.0166C0.191483 14.4404 -0.0515909 14.9248 0.00917816 15.4697Z" fill="#CD57FF"/>
</svg>
