<svg width="83" height="84" viewBox="0 0 83 84" fill="none" xmlns="http://www.w3.org/2000/svg">
<path d="M77.4258 5.78019C77.4258 3.6892 76.1766 1.79273 74.2547 0.982272C72.3328 0.171814 70.1387 0.62567 68.6652 2.10071L61.6824 9.18411C53.9949 16.9645 43.5687 21.341 32.6941 21.341H31.3008H26.1758H10.8008C5.14727 21.341 0.550781 25.993 0.550781 31.7149V47.2757C0.550781 52.9975 5.14727 57.6495 10.8008 57.6495V78.3973C10.8008 81.2663 13.091 83.5842 15.9258 83.5842H26.1758C29.0105 83.5842 31.3008 81.2663 31.3008 78.3973V57.6495H32.6941C43.5687 57.6495 53.9949 62.026 61.6824 69.8064L68.6652 76.8736C70.1387 78.3649 72.3328 78.8025 74.2547 77.9921C76.1766 77.1816 77.4258 75.3013 77.4258 73.1941V49.2856C80.4047 47.8592 82.5508 44.0176 82.5508 39.4953C82.5508 34.9729 80.4047 31.1313 77.4258 29.7049V5.78019ZM67.1758 18.2126V39.4953V60.7779C57.7586 52.106 45.4746 47.2757 32.6941 47.2757H31.3008V31.7149H32.6941C45.4746 31.7149 57.7586 26.8845 67.1758 18.2126Z" fill="#CD57FF"/>
</svg>
